<mxfile host="app.diagrams.net" modified="2024-07-03T14:18:53.423Z" agent="Mozilla/5.0 (Windows NT 10.0; Win64; x64) AppleWebKit/537.36 (KHTML, like Gecko) Chrome/126.0.0.0 Safari/537.36" etag="tE23klIVT0U-Tic7mZEy" version="23.1.6" type="device">
  <diagram name="第 1 页" id="nF6Y4FuDOcgXN7IYzq3m">
    <mxGraphModel dx="1290" dy="626" grid="1" gridSize="10" guides="1" tooltips="1" connect="1" arrows="1" fold="1" page="1" pageScale="1" pageWidth="827" pageHeight="1169" math="0" shadow="0">
      <root>
        <mxCell id="0" />
        <mxCell id="1" parent="0" />
        <mxCell id="xZCjQzkHvvDqLzkZ418M-1" value="Header" style="rounded=0;whiteSpace=wrap;html=1;" vertex="1" parent="1">
          <mxGeometry x="60" y="30" width="340" height="30" as="geometry" />
        </mxCell>
        <mxCell id="xZCjQzkHvvDqLzkZ418M-2" value="Navigation: Home | Resume | Porjects | Contact" style="rounded=0;whiteSpace=wrap;html=1;" vertex="1" parent="1">
          <mxGeometry x="60" y="60" width="340" height="50" as="geometry" />
        </mxCell>
        <mxCell id="xZCjQzkHvvDqLzkZ418M-3" value="Main Contact&lt;br&gt;&lt;br&gt;&lt;br&gt;&lt;br&gt;&lt;br&gt;&lt;br&gt;&lt;br&gt;&lt;div&gt;&lt;br/&gt;&lt;/div&gt;" style="rounded=0;whiteSpace=wrap;html=1;" vertex="1" parent="1">
          <mxGeometry x="60" y="110" width="340" height="160" as="geometry" />
        </mxCell>
        <mxCell id="xZCjQzkHvvDqLzkZ418M-4" value="Footer" style="rounded=0;whiteSpace=wrap;html=1;" vertex="1" parent="1">
          <mxGeometry x="60" y="270" width="340" height="40" as="geometry" />
        </mxCell>
        <mxCell id="xZCjQzkHvvDqLzkZ418M-5" value="Welcome to my website!&lt;br&gt;&lt;br&gt;About Me:&lt;div&gt;I am a software developer....&lt;/div&gt;" style="rounded=0;whiteSpace=wrap;html=1;align=left;" vertex="1" parent="1">
          <mxGeometry x="100" y="500" width="250" height="100" as="geometry" />
        </mxCell>
        <mxCell id="xZCjQzkHvvDqLzkZ418M-7" value="&lt;h1&gt;Home Page&lt;/h1&gt;" style="text;html=1;spacing=5;spacingTop=-20;whiteSpace=wrap;overflow=hidden;rounded=0;" vertex="1" parent="1">
          <mxGeometry x="490" y="70" width="190" height="120" as="geometry" />
        </mxCell>
        <mxCell id="xZCjQzkHvvDqLzkZ418M-8" value="Header" style="rounded=0;whiteSpace=wrap;html=1;" vertex="1" parent="1">
          <mxGeometry x="60" y="390" width="340" height="30" as="geometry" />
        </mxCell>
        <mxCell id="xZCjQzkHvvDqLzkZ418M-9" value="Navigation: Home | Resume | Porjects | Contact" style="rounded=0;whiteSpace=wrap;html=1;" vertex="1" parent="1">
          <mxGeometry x="60" y="420" width="340" height="50" as="geometry" />
        </mxCell>
        <mxCell id="xZCjQzkHvvDqLzkZ418M-10" value="Resume Contact&lt;br&gt;&lt;br&gt;&lt;br&gt;&lt;br&gt;&lt;br&gt;&lt;br&gt;&lt;br&gt;&lt;div&gt;&lt;br&gt;&lt;/div&gt;&lt;div&gt;&lt;br&gt;&lt;/div&gt;&lt;div&gt;&lt;br&gt;&lt;/div&gt;&lt;div&gt;&lt;br&gt;&lt;/div&gt;" style="rounded=0;whiteSpace=wrap;html=1;" vertex="1" parent="1">
          <mxGeometry x="60" y="470" width="340" height="200" as="geometry" />
        </mxCell>
        <mxCell id="xZCjQzkHvvDqLzkZ418M-11" value="Footer" style="rounded=0;whiteSpace=wrap;html=1;" vertex="1" parent="1">
          <mxGeometry x="60" y="670" width="340" height="40" as="geometry" />
        </mxCell>
        <mxCell id="xZCjQzkHvvDqLzkZ418M-12" value="Name: Han Wang&lt;br&gt;Email: wang0534@algonquinlive.com&lt;br&gt;Phone: (613)630-0911&lt;br&gt;LinkedIn: [link]&lt;br&gt;&lt;br&gt;Education:&lt;br&gt;- Advanced Diploma of CPA&lt;br&gt;- Diploma of ECE&lt;br&gt;- Bachelor&#39;s Degredd of Finance" style="rounded=0;whiteSpace=wrap;html=1;align=left;" vertex="1" parent="1">
          <mxGeometry x="105" y="510" width="250" height="140" as="geometry" />
        </mxCell>
        <mxCell id="xZCjQzkHvvDqLzkZ418M-14" value="Welcome to my website!&lt;br&gt;&lt;br&gt;About Me:&lt;div&gt;I am a software developer....&lt;/div&gt;" style="rounded=0;whiteSpace=wrap;html=1;align=left;" vertex="1" parent="1">
          <mxGeometry x="100" y="870" width="250" height="100" as="geometry" />
        </mxCell>
        <mxCell id="xZCjQzkHvvDqLzkZ418M-15" value="Header" style="rounded=0;whiteSpace=wrap;html=1;" vertex="1" parent="1">
          <mxGeometry x="60" y="760" width="340" height="30" as="geometry" />
        </mxCell>
        <mxCell id="xZCjQzkHvvDqLzkZ418M-16" value="Navigation: Home | Resume | Porjects | Contact" style="rounded=0;whiteSpace=wrap;html=1;" vertex="1" parent="1">
          <mxGeometry x="60" y="790" width="340" height="50" as="geometry" />
        </mxCell>
        <mxCell id="xZCjQzkHvvDqLzkZ418M-17" value="Main Contact&lt;br&gt;&lt;br&gt;&lt;br&gt;&lt;br&gt;&lt;br&gt;&lt;br&gt;&lt;br&gt;&lt;br&gt;&lt;br&gt;&lt;br&gt;&lt;br&gt;&lt;br&gt;&lt;br&gt;&lt;br&gt;&lt;br&gt;&lt;br&gt;&lt;br&gt;&lt;br&gt;&lt;div&gt;&lt;br&gt;&lt;/div&gt;&lt;div&gt;&lt;br&gt;&lt;/div&gt;&lt;div&gt;&lt;br&gt;&lt;/div&gt;&lt;div&gt;&lt;br&gt;&lt;/div&gt;&lt;div&gt;&lt;br&gt;&lt;/div&gt;&lt;div&gt;&lt;br&gt;&lt;/div&gt;" style="rounded=0;whiteSpace=wrap;html=1;" vertex="1" parent="1">
          <mxGeometry x="60" y="840" width="340" height="360" as="geometry" />
        </mxCell>
        <mxCell id="xZCjQzkHvvDqLzkZ418M-18" value="Footer" style="rounded=0;whiteSpace=wrap;html=1;" vertex="1" parent="1">
          <mxGeometry x="60" y="1200" width="340" height="40" as="geometry" />
        </mxCell>
        <mxCell id="xZCjQzkHvvDqLzkZ418M-19" value="Project 1:&lt;div&gt;- Title: Medical Clinic Database&lt;/div&gt;&lt;div&gt;- Description: ...&lt;/div&gt;&lt;div&gt;- Date Completed: ...&lt;/div&gt;&lt;div&gt;- Techologies Used: ...&lt;/div&gt;" style="rounded=0;whiteSpace=wrap;html=1;align=left;" vertex="1" parent="1">
          <mxGeometry x="107.5" y="870" width="245" height="80" as="geometry" />
        </mxCell>
        <mxCell id="xZCjQzkHvvDqLzkZ418M-21" value="&lt;h1&gt;Resume Page&lt;/h1&gt;" style="text;html=1;spacing=5;spacingTop=-20;whiteSpace=wrap;overflow=hidden;rounded=0;" vertex="1" parent="1">
          <mxGeometry x="480" y="390" width="190" height="125" as="geometry" />
        </mxCell>
        <mxCell id="xZCjQzkHvvDqLzkZ418M-22" value="&lt;h1&gt;Projects Page&lt;/h1&gt;" style="text;html=1;spacing=5;spacingTop=-20;whiteSpace=wrap;overflow=hidden;rounded=0;" vertex="1" parent="1">
          <mxGeometry x="480" y="760" width="190" height="125" as="geometry" />
        </mxCell>
        <mxCell id="xZCjQzkHvvDqLzkZ418M-27" value="Project 2:&lt;div&gt;- Title: Personal Finance Tracker&lt;/div&gt;&lt;div&gt;- Description: ...&lt;/div&gt;&lt;div&gt;- Date Completed: ...&lt;/div&gt;&lt;div&gt;- Techologies Used: ...&lt;/div&gt;" style="rounded=0;whiteSpace=wrap;html=1;align=left;" vertex="1" parent="1">
          <mxGeometry x="107.5" y="950" width="245" height="80" as="geometry" />
        </mxCell>
        <mxCell id="xZCjQzkHvvDqLzkZ418M-28" value="Project 3:&lt;div&gt;- Title: Personal Website&lt;/div&gt;&lt;div&gt;- Description: ...&lt;/div&gt;&lt;div&gt;- Date Completed: ...&lt;/div&gt;&lt;div&gt;- Techologies Used: ...&lt;/div&gt;" style="rounded=0;whiteSpace=wrap;html=1;align=left;" vertex="1" parent="1">
          <mxGeometry x="107.5" y="1030" width="245" height="80" as="geometry" />
        </mxCell>
        <mxCell id="xZCjQzkHvvDqLzkZ418M-29" value="Project 4:&lt;div&gt;- Title: Todo List Application&lt;/div&gt;&lt;div&gt;- Description: ...&lt;/div&gt;&lt;div&gt;- Date Completed: ...&lt;/div&gt;&lt;div&gt;- Techologies Used: ...&lt;/div&gt;" style="rounded=0;whiteSpace=wrap;html=1;align=left;" vertex="1" parent="1">
          <mxGeometry x="107.5" y="1110" width="245" height="80" as="geometry" />
        </mxCell>
        <mxCell id="xZCjQzkHvvDqLzkZ418M-30" value="Header" style="rounded=0;whiteSpace=wrap;html=1;" vertex="1" parent="1">
          <mxGeometry x="60" y="1280" width="340" height="30" as="geometry" />
        </mxCell>
        <mxCell id="xZCjQzkHvvDqLzkZ418M-31" value="Navigation: Home | Resume | Porjects | Contact" style="rounded=0;whiteSpace=wrap;html=1;" vertex="1" parent="1">
          <mxGeometry x="60" y="1310" width="340" height="50" as="geometry" />
        </mxCell>
        <mxCell id="xZCjQzkHvvDqLzkZ418M-32" value="Contact Form&lt;br&gt;&lt;br&gt;&lt;br&gt;&lt;br&gt;&lt;br&gt;&lt;br&gt;&lt;br&gt;&lt;div&gt;&lt;br&gt;&lt;/div&gt;&lt;div&gt;&lt;br&gt;&lt;/div&gt;" style="rounded=0;whiteSpace=wrap;html=1;" vertex="1" parent="1">
          <mxGeometry x="60" y="1360" width="340" height="160" as="geometry" />
        </mxCell>
        <mxCell id="xZCjQzkHvvDqLzkZ418M-33" value="Footer" style="rounded=0;whiteSpace=wrap;html=1;" vertex="1" parent="1">
          <mxGeometry x="60" y="1520" width="340" height="40" as="geometry" />
        </mxCell>
        <mxCell id="xZCjQzkHvvDqLzkZ418M-34" value="&lt;h1&gt;Contact Page&lt;/h1&gt;" style="text;html=1;spacing=5;spacingTop=-20;whiteSpace=wrap;overflow=hidden;rounded=0;" vertex="1" parent="1">
          <mxGeometry x="480" y="1280" width="190" height="125" as="geometry" />
        </mxCell>
        <mxCell id="xZCjQzkHvvDqLzkZ418M-35" value="Name:&lt;br&gt;Email:&lt;br&gt;Message:&lt;br&gt;[Submit Button]" style="rounded=0;whiteSpace=wrap;html=1;align=left;" vertex="1" parent="1">
          <mxGeometry x="107.5" y="1405" width="252.5" height="90" as="geometry" />
        </mxCell>
      </root>
    </mxGraphModel>
  </diagram>
</mxfile>
